<svg height='100px' width='100px'  fill="#000000" xmlns="http://www.w3.org/2000/svg" data-name="Layer 1" viewBox="0 0 100 100" x="0px" y="0px">
    <style>
        path { fill: #ffffff; }
    </style>
    <title>17</title><g data-name="Group"><path data-name="Compound Path" d="M36.4,57.3A8.4,8.4,0,0,0,28,49a8.3,8.3,0,0,0-8.3,8.3A8.4,8.4,0,0,0,28,65.7,8.5,8.5,0,0,0,36.4,57.3Zm-10.7,0A2.3,2.3,0,0,1,28,55a2.3,2.3,0,0,1,2.4,2.3A2.4,2.4,0,0,1,28,59.7,2.3,2.3,0,0,1,25.7,57.3Z"></path><path data-name="Compound Path" d="M48.6,49a8.3,8.3,0,0,0-8.3,8.3,8.4,8.4,0,0,0,8.3,8.4A8.5,8.5,0,0,0,57,57.3,8.4,8.4,0,0,0,48.6,49Zm0,10.7a2.3,2.3,0,0,1-2.3-2.4A2.3,2.3,0,0,1,48.6,55,2.3,2.3,0,0,1,51,57.3,2.4,2.4,0,0,1,48.6,59.7Z"></path><path data-name="Compound Path" d="M87.7,6.7H57.6a8,8,0,0,0-8,8V32.1a7.4,7.4,0,0,0,1.3,4.4H41.3V20.9a3,3,0,0,0-3-3,3.1,3.1,0,0,0-3,3V36.5H19a9,9,0,0,0-9,9v4H7.3a2.9,2.9,0,0,0-3,3V69.2a2.9,2.9,0,0,0,3,3H10V84.3a9,9,0,0,0,9,9H57.6a9,9,0,0,0,9-9V72.2h2.8a2.9,2.9,0,0,0,3-3V52.5a2.9,2.9,0,0,0-3-3H66.6V44L71,40.1H87.7a8,8,0,0,0,8-8V14.7A8,8,0,0,0,87.7,6.7ZM66.4,66.2H63.6a3.1,3.1,0,0,0-3,3V84.3a2.9,2.9,0,0,1-3,3H19a3,3,0,0,1-3-3V69.2a3,3,0,0,0-3-3H10.3V55.5H13a2.9,2.9,0,0,0,3-3v-7a3.1,3.1,0,0,1,3-3H56.3v4a2.9,2.9,0,0,0,1.8,2.7,2.7,2.7,0,0,0,1.2.3,2.8,2.8,0,0,0,1.3-.3v3.3a3,3,0,0,0,3,3h2.8ZM89.7,32.1a2,2,0,0,1-2,2H69.8a3.2,3.2,0,0,0-2,.8l-5.5,4.9V37.1a3,3,0,0,0-3-3H57.6a1.9,1.9,0,0,1-2-2V14.7a1.9,1.9,0,0,1,2-2H87.7a2,2,0,0,1,2,2Z"></path><path data-name="Compound Path" d="M46.1,69.2H30.5a7.4,7.4,0,0,0,0,14.8H46.1a7.4,7.4,0,0,0,0-14.8Zm0,8.8H30.5a1.4,1.4,0,0,1,0-2.8H46.1a1.4,1.4,0,1,1,0,2.8Z"></path></g>
</svg>